<?xml version="1.0" encoding="UTF-8"?>
<!DOCTYPE svg PUBLIC "-//W3C//DTD SVG 1.0//EN" "http://www.w3.org/TR/2001/REC-SVG-20010904/DTD/svg10.dtd">
<!-- Creator: CorelDRAW -->
<svg xmlns="http://www.w3.org/2000/svg" xml:space="preserve" width="0.476272in" height="0.475917in" version="1.0" style="shape-rendering:geometricPrecision; text-rendering:geometricPrecision; image-rendering:optimizeQuality; fill-rule:evenodd; clip-rule:evenodd"
viewBox="0 0 476.27 475.91"
 xmlns:xlink="http://www.w3.org/1999/xlink"
 xmlns:xodm="http://www.corel.com/coreldraw/odm/2003">
 <defs>
  <style type="text/css">
   <![CDATA[
    .fil0 {fill:url(#id0)}
   ]]>
  </style>
  <linearGradient id="id0" gradientUnits="userSpaceOnUse" x1="127.06" y1="-198.93" x2="138.05" y2="682.38">
   <stop offset="0" style="stop-opacity:1; stop-color:#24A0A4"/>
   <stop offset="0.321569" style="stop-opacity:1; stop-color:#0983D7"/>
   <stop offset="1" style="stop-opacity:1; stop-color:#4BC95A"/>
  </linearGradient>
 </defs>
 <g id="Layer_x0020_1">
  <metadata id="CorelCorpID_0Corel-Layer"/>
  <path class="fil0" d="M253.98 0.19c124.12,8.15 222.29,111.4 222.29,237.59 0,81.87 -41.32,154.07 -104.23,196.93l0 -237.41c0,-7.9 -6.46,-14.36 -14.36,-14.36 -7.9,0 -14.37,6.47 -14.37,14.36l0 254.17c-31.72,15.65 -67.42,24.44 -105.18,24.44 -36.59,0 -71.25,-8.26 -102.22,-23l0 -251.55c0,-7.9 -6.46,-14.36 -14.37,-14.36 -7.9,0 -14.36,6.47 -14.36,14.36l0 235.33c-64.57,-42.59 -107.19,-115.77 -107.19,-198.91 0,-127.2 99.72,-231.09 225.25,-237.78l0 254.38c0,7.9 6.46,14.37 14.36,14.37 7.9,0 14.37,-6.46 14.37,-14.37l0 -254.19z"/>
 </g>
</svg>
