<svg width="10" height="11" viewBox="0 0 10 11" fill="none" xmlns="http://www.w3.org/2000/svg">
<path d="M0.0888438 10V0.744H1.41484V4.709H3.05284V0.744H4.37884V10H3.05284V5.879H1.41484V10H0.0888438ZM9.914 0.744V7.92C9.914 8.52667 9.70167 9.038 9.277 9.454C8.861 9.86133 8.35833 10.065 7.769 10.065C7.17967 10.065 6.67267 9.86133 6.248 9.454C5.832 9.038 5.624 8.52667 5.624 7.92V0.744H6.95V7.79C6.95 8.11067 7.028 8.35333 7.184 8.518C7.34 8.674 7.535 8.752 7.769 8.752C8.003 8.752 8.198 8.674 8.354 8.518C8.51 8.35333 8.588 8.11067 8.588 7.79V0.744H9.914Z" fill="white"/>
</svg>
