<svg width="18" height="18" viewBox="0 0 18 18" fill="none" xmlns="http://www.w3.org/2000/svg">
<path d="M15.5119 14.5596L12.5611 11.6155C13.2977 10.6788 13.697 9.52104 13.6945 8.32938C13.6945 7.26826 13.3798 6.23098 12.7903 5.3487C12.2008 4.46641 11.3628 3.77876 10.3825 3.37269C9.40216 2.96662 8.32342 2.86037 7.2827 3.06739C6.24198 3.2744 5.28601 3.78537 4.53569 4.53569C3.78537 5.28601 3.2744 6.24198 3.06739 7.2827C2.86037 8.32342 2.96662 9.40216 3.37269 10.3825C3.77876 11.3628 4.46641 12.2008 5.3487 12.7903C6.23098 13.3798 7.26826 13.6945 8.32938 13.6945C9.52104 13.697 10.6788 13.2977 11.6155 12.5611L14.5596 15.5119C14.6859 15.6382 14.8571 15.7091 15.0357 15.7091C15.2143 15.7091 15.3856 15.6382 15.5119 15.5119C15.6382 15.3856 15.7091 15.2143 15.7091 15.0357C15.7091 14.8571 15.6382 14.6859 15.5119 14.5596ZM5.48588 11.2064C4.81984 10.5551 4.40042 9.69287 4.29917 8.76682C4.19792 7.84078 4.42112 6.90829 4.93069 6.12845C5.44026 5.34861 6.20463 4.76974 7.09338 4.49059C7.98214 4.21144 8.94022 4.24931 9.80416 4.59774C10.6681 4.94617 11.3844 5.58358 11.8308 6.4012C12.2772 7.21883 12.4261 8.16603 12.2521 9.08119C12.0781 9.99636 11.5919 10.8228 10.8765 11.4195C10.1612 12.0162 9.26091 12.3462 8.32938 12.3532C7.26256 12.3522 6.23977 11.9277 5.48588 11.1729V11.2064Z" fill="#27B68A"/>
</svg>
